# xmcd
#
# Track frame offsets:
#	182
#	15662
#	28395
#	41557
#	54295
#	68890
#	87272
#	98200
#	112655
#	128412
#	142255
#	155765
#	170495
#	184092
#	198215
#	212092
#	226465
#
# Disc length: 3160 seconds
#
# Revision: 0
# Processed by: cddbd v1.4PL0 Copyright (c) Steve Scherf et al.
# Submitted via: dBpowerAMP V4.0
#
DISCID=e70c5611
DTITLE=Don Williams - Gold
DYEAR=1900
DGENRE=Country
TTITLE0=I Recall A Gypsy Woman
TTITLE1=Some Broken Hearts Never Mend
TTITLE2=Lay Down Beside Me
TTITLE3=You're My Best Friend
TTITLE4=Tulsa Time
TTITLE5=I Believe In You
TTITLE6=Turn Out The Light And Love Me Tonight
TTITLE7=Amanda
TTITLE8=Till The Rivers All Run Dry
TTITLE9=Fool Fool Heart
TTITLE10=Love Me All Over Again
TTITLE11=She's In Love With A Rodeo Man
TTITLE12=The Shelter Of Your Eyes
TTITLE13=I'm Just A Country Boy
TTITLE14=Come Early Morning
TTITLE15=Listen To The Radio
TTITLE16=Especially For You
EXTD=
EXTT0=
EXTT1=
EXTT2=
EXTT3=
EXTT4=
EXTT5=
EXTT6=
EXTT7=
EXTT8=
EXTT9=
EXTT10=
EXTT11=
EXTT12=
EXTT13=
EXTT14=
EXTT15=
EXTT16=
PLAYORDER=
